<mxfile host="app.diagrams.net" modified="2022-12-21T16:21:43.088Z" agent="5.0 (Macintosh; Intel Mac OS X 10_15_7) AppleWebKit/605.1.15 (KHTML, like Gecko) Version/16.1 Safari/605.1.15" etag="1GpaJrY0TMkDy0rPwanq" version="20.7.4" type="github">
  <diagram id="1c3a3Ne5sWxcKdT_-n9J" name="Page-1">
    <mxGraphModel dx="1949" dy="761" grid="1" gridSize="10" guides="1" tooltips="1" connect="1" arrows="1" fold="1" page="1" pageScale="1" pageWidth="827" pageHeight="1169" math="0" shadow="0">
      <root>
        <mxCell id="0" />
        <mxCell id="1" parent="0" />
        <mxCell id="gdSRfwR2-Zda05xjYu1--1" value="Camera" style="rounded=0;whiteSpace=wrap;html=1;" vertex="1" parent="1">
          <mxGeometry x="520" y="290" width="120" height="60" as="geometry" />
        </mxCell>
        <mxCell id="gdSRfwR2-Zda05xjYu1--2" value="" style="endArrow=none;dashed=1;html=1;rounded=0;strokeWidth=2;" edge="1" parent="1">
          <mxGeometry width="50" height="50" relative="1" as="geometry">
            <mxPoint x="480" y="480" as="sourcePoint" />
            <mxPoint x="480" y="200" as="targetPoint" />
            <Array as="points">
              <mxPoint x="479.5" y="336.25" />
            </Array>
          </mxGeometry>
        </mxCell>
        <mxCell id="gdSRfwR2-Zda05xjYu1--3" value="Internet" style="text;html=1;strokeColor=none;fillColor=none;align=center;verticalAlign=middle;whiteSpace=wrap;rounded=0;fontSize=14;" vertex="1" parent="1">
          <mxGeometry x="450" y="150" width="60" height="30" as="geometry" />
        </mxCell>
        <mxCell id="gdSRfwR2-Zda05xjYu1--4" value="Socket" style="whiteSpace=wrap;html=1;aspect=fixed;fontSize=14;fillColor=none;rotation=-90;" vertex="1" parent="1">
          <mxGeometry x="330" y="292.5" width="55" height="55" as="geometry" />
        </mxCell>
        <mxCell id="gdSRfwR2-Zda05xjYu1--5" value="" style="whiteSpace=wrap;html=1;fontSize=14;dashed=1;fillColor=none;" vertex="1" parent="1">
          <mxGeometry x="-410" y="140" width="740" height="360" as="geometry" />
        </mxCell>
        <mxCell id="gdSRfwR2-Zda05xjYu1--6" value="Server" style="text;html=1;strokeColor=none;fillColor=none;align=center;verticalAlign=middle;whiteSpace=wrap;rounded=0;fontSize=14;" vertex="1" parent="1">
          <mxGeometry x="-70" y="140" width="60" height="30" as="geometry" />
        </mxCell>
        <mxCell id="gdSRfwR2-Zda05xjYu1--7" value="" style="endArrow=classic;html=1;strokeWidth=2;fontSize=14;rounded=0;dashed=1;" edge="1" parent="1">
          <mxGeometry width="50" height="50" relative="1" as="geometry">
            <mxPoint x="510" y="320" as="sourcePoint" />
            <mxPoint x="400" y="320" as="targetPoint" />
            <Array as="points">
              <mxPoint x="450" y="320" />
            </Array>
          </mxGeometry>
        </mxCell>
        <mxCell id="gdSRfwR2-Zda05xjYu1--9" value="ByteDecoder" style="rounded=0;whiteSpace=wrap;html=1;fontSize=14;fillColor=none;" vertex="1" parent="1">
          <mxGeometry x="210" y="285" width="120" height="70" as="geometry" />
        </mxCell>
        <mxCell id="gdSRfwR2-Zda05xjYu1--10" style="edgeStyle=orthogonalEdgeStyle;rounded=0;orthogonalLoop=1;jettySize=auto;html=1;exitX=0.5;exitY=1;exitDx=0;exitDy=0;dashed=1;strokeWidth=2;fontSize=14;" edge="1" parent="1" source="gdSRfwR2-Zda05xjYu1--9" target="gdSRfwR2-Zda05xjYu1--9">
          <mxGeometry relative="1" as="geometry" />
        </mxCell>
        <mxCell id="gdSRfwR2-Zda05xjYu1--11" value="" style="endArrow=classic;html=1;rounded=0;dashed=1;strokeWidth=2;fontSize=14;exitX=0;exitY=0.5;exitDx=0;exitDy=0;" edge="1" parent="1" source="gdSRfwR2-Zda05xjYu1--9">
          <mxGeometry width="50" height="50" relative="1" as="geometry">
            <mxPoint x="110" y="350" as="sourcePoint" />
            <mxPoint x="210" y="320" as="targetPoint" />
          </mxGeometry>
        </mxCell>
        <mxCell id="gdSRfwR2-Zda05xjYu1--14" value="" style="endArrow=classic;html=1;rounded=0;strokeWidth=2;fontSize=14;entryX=1;entryY=0.5;entryDx=0;entryDy=0;exitX=0;exitY=0.5;exitDx=0;exitDy=0;" edge="1" parent="1" source="gdSRfwR2-Zda05xjYu1--9" target="gdSRfwR2-Zda05xjYu1--15">
          <mxGeometry width="50" height="50" relative="1" as="geometry">
            <mxPoint x="110" y="350" as="sourcePoint" />
            <mxPoint x="160" y="300" as="targetPoint" />
          </mxGeometry>
        </mxCell>
        <mxCell id="gdSRfwR2-Zda05xjYu1--15" value="Robots&amp;nbsp;/ Track&lt;br&gt;Recognizer" style="rounded=0;whiteSpace=wrap;html=1;fontSize=14;fillColor=none;" vertex="1" parent="1">
          <mxGeometry x="30" y="290" width="130" height="60" as="geometry" />
        </mxCell>
        <mxCell id="gdSRfwR2-Zda05xjYu1--16" value="image" style="text;html=1;strokeColor=none;fillColor=none;align=center;verticalAlign=middle;whiteSpace=wrap;rounded=0;fontSize=14;" vertex="1" parent="1">
          <mxGeometry x="160" y="290" width="60" height="30" as="geometry" />
        </mxCell>
        <mxCell id="gdSRfwR2-Zda05xjYu1--19" value="" style="endArrow=classic;html=1;rounded=0;strokeWidth=2;fontSize=14;exitX=0;exitY=0.5;exitDx=0;exitDy=0;entryX=1;entryY=0.5;entryDx=0;entryDy=0;" edge="1" parent="1" source="gdSRfwR2-Zda05xjYu1--15" target="gdSRfwR2-Zda05xjYu1--20">
          <mxGeometry width="50" height="50" relative="1" as="geometry">
            <mxPoint x="-90" y="350" as="sourcePoint" />
            <mxPoint x="-40" y="300" as="targetPoint" />
          </mxGeometry>
        </mxCell>
        <mxCell id="gdSRfwR2-Zda05xjYu1--20" value="" style="rounded=0;whiteSpace=wrap;html=1;fontSize=14;fillColor=none;" vertex="1" parent="1">
          <mxGeometry x="-90" y="260" width="40" height="60" as="geometry" />
        </mxCell>
        <mxCell id="gdSRfwR2-Zda05xjYu1--21" value="" style="rounded=0;whiteSpace=wrap;html=1;fontSize=14;fillColor=none;" vertex="1" parent="1">
          <mxGeometry x="-90" y="320" width="40" height="60" as="geometry" />
        </mxCell>
        <mxCell id="gdSRfwR2-Zda05xjYu1--22" value="" style="endArrow=classic;html=1;rounded=0;strokeWidth=2;fontSize=14;exitX=0;exitY=0.5;exitDx=0;exitDy=0;entryX=1;entryY=0.5;entryDx=0;entryDy=0;" edge="1" parent="1" source="gdSRfwR2-Zda05xjYu1--15" target="gdSRfwR2-Zda05xjYu1--21">
          <mxGeometry width="50" height="50" relative="1" as="geometry">
            <mxPoint x="-90" y="350" as="sourcePoint" />
            <mxPoint x="-40" y="300" as="targetPoint" />
          </mxGeometry>
        </mxCell>
        <mxCell id="gdSRfwR2-Zda05xjYu1--23" value="[robot]" style="text;html=1;strokeColor=none;fillColor=none;align=center;verticalAlign=middle;whiteSpace=wrap;rounded=0;fontSize=14;" vertex="1" parent="1">
          <mxGeometry x="-30" y="347.5" width="60" height="30" as="geometry" />
        </mxCell>
        <mxCell id="gdSRfwR2-Zda05xjYu1--24" value="track" style="text;html=1;strokeColor=none;fillColor=none;align=center;verticalAlign=middle;whiteSpace=wrap;rounded=0;fontSize=14;" vertex="1" parent="1">
          <mxGeometry x="-30" y="255" width="60" height="30" as="geometry" />
        </mxCell>
        <mxCell id="gdSRfwR2-Zda05xjYu1--25" value="Interpretator" style="rounded=0;whiteSpace=wrap;html=1;fontSize=14;fillColor=none;" vertex="1" parent="1">
          <mxGeometry x="-220" y="260" width="130" height="120" as="geometry" />
        </mxCell>
        <mxCell id="gdSRfwR2-Zda05xjYu1--26" value="Converts model objects to mathematical objects (matrixes, coordinates)" style="text;html=1;strokeColor=none;fillColor=none;align=center;verticalAlign=middle;whiteSpace=wrap;rounded=0;fontSize=14;" vertex="1" parent="1">
          <mxGeometry x="-220" y="380" width="130" height="110" as="geometry" />
        </mxCell>
        <mxCell id="gdSRfwR2-Zda05xjYu1--27" value="" style="rounded=0;whiteSpace=wrap;html=1;fontSize=14;fillColor=none;" vertex="1" parent="1">
          <mxGeometry x="-320" y="260" width="100" height="120" as="geometry" />
        </mxCell>
        <mxCell id="gdSRfwR2-Zda05xjYu1--28" value="Estimator" style="text;html=1;strokeColor=none;fillColor=none;align=center;verticalAlign=middle;whiteSpace=wrap;rounded=0;fontSize=14;" vertex="1" parent="1">
          <mxGeometry x="-300" y="305" width="60" height="30" as="geometry" />
        </mxCell>
        <mxCell id="gdSRfwR2-Zda05xjYu1--29" value="Estimates diff between ideal trajectory and real once" style="text;html=1;strokeColor=none;fillColor=none;align=center;verticalAlign=middle;whiteSpace=wrap;rounded=0;fontSize=14;" vertex="1" parent="1">
          <mxGeometry x="-320" y="400" width="100" height="80" as="geometry" />
        </mxCell>
        <mxCell id="gdSRfwR2-Zda05xjYu1--30" value="User&lt;br&gt;Presenter" style="rounded=0;whiteSpace=wrap;html=1;fontSize=14;fillColor=none;" vertex="1" parent="1">
          <mxGeometry x="-410" y="260" width="90" height="120" as="geometry" />
        </mxCell>
        <mxCell id="gdSRfwR2-Zda05xjYu1--32" value="" style="rounded=0;whiteSpace=wrap;html=1;fontSize=14;fillColor=none;" vertex="1" parent="1">
          <mxGeometry x="-450" y="230" width="40" height="180" as="geometry" />
        </mxCell>
        <mxCell id="gdSRfwR2-Zda05xjYu1--35" value="Display" style="text;html=1;strokeColor=none;fillColor=none;align=center;verticalAlign=middle;whiteSpace=wrap;rounded=0;fontSize=14;rotation=90;" vertex="1" parent="1">
          <mxGeometry x="-521.25" y="306.25" width="182.5" height="30" as="geometry" />
        </mxCell>
        <mxCell id="gdSRfwR2-Zda05xjYu1--36" value="Converts in-module data to user-presentable&amp;nbsp;" style="text;html=1;strokeColor=none;fillColor=none;align=center;verticalAlign=middle;whiteSpace=wrap;rounded=0;fontSize=14;" vertex="1" parent="1">
          <mxGeometry x="-398.75" y="400" width="68.75" height="80" as="geometry" />
        </mxCell>
      </root>
    </mxGraphModel>
  </diagram>
</mxfile>
